<svg clip-rule="evenodd" fill-rule="evenodd" height="800" stroke-linejoin="round" stroke-miterlimit="2" viewBox="0 0 32 32" width="800" xmlns="http://www.w3.org/2000/svg"><g transform="translate(-384 -240)"><g fill="#9997ff"><path d="m407.063 255.647c-.001-.975-.84-1.765-1.875-1.765-2.495 0-6.881 0-9.376 0-1.035 0-1.874.79-1.875 1.765.001 2.712.001 7.876.001 10.588 0 .975.839 1.765 1.874 1.765h9.376c1.035 0 1.874-.79 1.875-1.765 0-2.712 0-7.876 0-10.588z" transform="matrix(1.06667 0 0 1.13333 -27.2 -34.7333)"/><path d="m408 249.5c0-1.381-.768-2.5-1.714-2.5-3.076 0-9.496 0-12.572 0-.946 0-1.714 1.119-1.714 2.5s.768 2.5 1.714 2.5h12.572c.946 0 1.714-1.119 1.714-2.5z" transform="matrix(.875 0 0 .6 50 101.8)"/><path d="m396 247.5c0-3.036 2.464-5.5 5.5-5.5s5.5 2.464 5.5 5.5z" transform="matrix(.909091 0 0 .909091 35 25)"/></g><path d="m399.003 244.083c-2.512.42-4.498 2.405-4.92 4.917h-.083c-1.105 0-2 .895-2 2v1c0 .511.192.977.507 1.331-.32.477-.507 1.051-.507 1.669v12c0 1.657 1.343 3 3 3h10c1.657 0 3-1.343 3-3v-12c0-.618-.187-1.192-.507-1.669.315-.354.507-.82.507-1.331v-1c0-1.105-.895-2-2-2h-.083c-.422-2.512-2.408-4.496-4.92-4.917.002-.028.003-.055.003-.083v-1c0-.552-.448-1-1-1s-1 .448-1 1v1c0 .028.001.055.003.083zm-5.003 21.917v1c0 .552.448 1 1 1h10c.552 0 1-.448 1-1v-12c0-.552-.448-1-1-1h-10c-.552 0-1 .448-1 1v1h4c.552 0 1 .448 1 1s-.448 1-1 1h-4v2h2c.552 0 1 .448 1 1s-.448 1-1 1h-2v2h4c.552 0 1 .448 1 1s-.448 1-1 1zm0-14h12v-1h-12zm9.874-3c-.445-1.724-2.011-3-3.874-3-1.862 0-3.429 1.276-3.874 3z" fill="#7869cf"/></g></svg>