<!DOCTYPE svg PUBLIC "-//W3C//DTD SVG 1.1//EN" "http://www.w3.org/Graphics/SVG/1.1/DTD/svg11.dtd">
<!-- Uploaded to: SVG Repo, www.svgrepo.com, Transformed by: SVG Repo Mixer Tools -->
<svg height="800px" width="800px" version="1.1" id="Layer_1" xmlns="http://www.w3.org/2000/svg" xmlns:xlink="http://www.w3.org/1999/xlink" viewBox="0 0 512 512" xml:space="preserve" fill="#000000">
<g id="SVGRepo_bgCarrier" stroke-width="0"/>
<g id="SVGRepo_tracerCarrier" stroke-linecap="round" stroke-linejoin="round"/>
<g id="SVGRepo_iconCarrier"> <path style="fill:#5AD7CA;" d="M202.667,81.472c0,36.447,21.945,67.752,53.333,81.472c31.388-13.719,53.333-45.025,53.333-81.472 S287.39,13.719,256,0C224.612,13.719,202.667,45.025,202.667,81.472z"/> <path style="fill:#5AD7CA;" d="M256,82.22c-6.546,0-11.852,5.307-11.852,11.852v142.222h23.704V94.072 C267.852,87.527,262.546,82.22,256,82.22z"/> <path style="fill:#0a9989;" d="M374.519,200.738H137.481c-6.519,0-11.852,5.333-11.852,11.852v74.225H386.37V212.59 C386.37,206.072,381.037,200.738,374.519,200.738z"/> <path style="fill:#5AD7CA;" d="M18.963,263.111c0,130.912,106.125,237.037,237.037,237.037s237.037-106.125,237.037-237.037H18.963z "/> <path style="fill:#5AD7CA;" d="M350.815,512h-189.63c-6.546,0-11.852-5.307-11.852-11.852c0-6.545,5.306-11.852,11.852-11.852 h189.63c6.546,0,11.852,5.307,11.852,11.852C362.667,506.693,357.361,512,350.815,512z"/> </g>
</svg>