<?xml version="1.0" encoding="iso-8859-1"?>
<!-- Uploaded to: SVG Repo, www.svgrepo.com, Generator: SVG Repo Mixer Tools -->
<svg height="800px" width="800px" version="1.1" id="Layer_1" xmlns="http://www.w3.org/2000/svg" xmlns:xlink="http://www.w3.org/1999/xlink" 
	 viewBox="0 0 512 512" xml:space="preserve">
<path style="fill:#F4C063;" d="M398.518,287.71H283.067v-85.95c0-29.639,24.027-53.666,53.666-53.666h8.121
	c29.639,0,53.666,24.027,53.666,53.666v85.95H398.518z"/>
<path style="fill:#D5A03C;" d="M353.238,149.454c-4.01-0.882-8.171-1.36-12.445-1.36l0,0c-31.881,0-57.726,25.845-57.726,57.726
	v81.889h24.891V205.82C307.957,178.214,327.341,155.148,353.238,149.454z"/>
<polygon style="fill:#EC589B;" points="408.027,388.344 273.557,388.344 283.067,287.71 398.518,287.71 "/>
<circle style="fill:#F9DCA4;" cx="147.686" cy="219.364" r="56.052"/>
<path style="fill:#E7C080;" d="M121.028,219.368c0-25.87,17.531-47.634,41.355-54.093c-4.685-1.271-9.61-1.96-14.697-1.96
	c-30.957,0-56.052,25.096-56.052,56.052s25.096,56.052,56.052,56.052c5.088,0,10.012-0.69,14.697-1.96
	C138.559,267.003,121.028,245.238,121.028,219.368z"/>
<path style="fill:#F4C063;" d="M147.687,163.31c0,44.047-54.426,42.611-54.426,42.611C99.276,181.456,121.367,163.31,147.687,163.31
	z"/>
<g>
	<path style="fill:#F9DCA4;" d="M119.807,428.194c5.047,27.837,13.852,62.423,27.885,76.457v-76.457"/>
	<path style="fill:#F9DCA4;" d="M175.566,428.194c-5.047,27.837-13.852,62.423-27.873,76.457v-92.266"/>
</g>
<path style="fill:#74C194;" d="M94.765,420.214l-1.195,7.981h108.234l-1.195-7.981c-4.393-29.336-6.6-58.957-6.6-88.62v-9.851
	c0-25.582-20.739-46.322-46.322-46.322l0,0c-25.582,0-46.322,20.739-46.322,46.322v9.851
	C101.365,361.257,99.158,390.879,94.765,420.214z"/>
<path style="fill:#F4C063;" d="M202.112,205.922c0,0-54.426,1.436-54.426-42.611C174.007,163.31,196.098,181.456,202.112,205.922z"
	/>
<path style="fill:#54AC7C;" d="M102.56,321.744v9.851c0,29.663-2.206,59.285-6.6,88.62l-1.195,7.981h28.471l0.566-7.981
	c2.083-29.336,3.128-58.957,3.128-88.62v-9.851c0-25.582,9.828-46.322,21.952-46.322l0,0
	C123.299,275.421,102.56,296.16,102.56,321.744z"/>
<g>
	<path style="fill:#F9DCA4;" d="M180.444,288.996c-7.586,9.757-19.434,16.043-32.753,16.043c-13.329,0-25.189-6.286-32.764-16.054
		c8.378-8.378,19.955-13.567,32.753-13.567C160.478,275.418,172.066,280.607,180.444,288.996z"/>
	<path style="fill:#F9DCA4;" d="M339.484,388.345v116.308c-15.797-15.797-24.966-57.704-29.612-86.648
		c-2.736-17.099-3.891-29.66-3.891-29.66L339.484,388.345L339.484,388.345z"/>
	<circle style="fill:#F9DCA4;" cx="340.402" cy="78.292" r="69.808"/>
</g>
<path style="fill:#E7C080;" d="M302.379,78.287c0-33.084,23.023-60.773,53.917-67.969c-5.108-1.19-10.422-1.839-15.891-1.839
	c-38.553,0-69.808,31.253-69.808,69.808s31.253,69.808,69.808,69.808c5.47,0,10.783-0.649,15.891-1.838
	C325.402,139.06,302.379,111.371,302.379,78.287z"/>
<path style="fill:#F9DCA4;" d="M372.999,388.345c0,0-1.155,12.562-3.891,29.66c-4.646,28.944-13.827,70.85-29.624,86.648V388.345
	H372.999z"/>
<g>
	<path style="fill:#4D4D4D;" d="M410.213,78.287c0,0,11.262,83.875-11.687,127.533c0-15.943-6.458-30.378-16.904-40.825
		c-10.446-10.446-24.882-16.904-40.825-16.904C379.165,147.885,410.213,116.704,410.213,78.287z"/>
	<path style="fill:#4D4D4D;" d="M410.213,78.287c-77.478,7.941-118.873-49.641-118.873-49.641
		c12.611-12.465,29.941-20.163,49.07-20.163C378.958,8.483,410.213,39.736,410.213,78.287z"/>
</g>
<polyline style="fill:#D3468D;" points="307.957,287.71 307.148,388.344 273.557,388.344 283.067,287.71 "/>
<path style="fill:#E7C080;" d="M372.999,388.345c0,0-1.155,12.562-3.891,29.66h-59.236c-2.736-17.099-3.891-29.66-3.891-29.66
	L372.999,388.345L372.999,388.345z"/>
<path d="M350.383,185.159c-4.613,0.757-7.756,5.11-6.998,9.734c0.678,4.16,4.274,7.123,8.366,7.123c0.452,0,0.904-0.045,1.368-0.113
	c4.624-0.757,7.756-5.121,7.01-9.734C359.371,187.544,355.007,184.401,350.383,185.159z"/>
<path d="M368.755,179.042c-4.149,2.171-5.766,7.292-3.595,11.441c1.515,2.894,4.466,4.556,7.53,4.556
	c1.323,0,2.668-0.317,3.912-0.972c4.16-2.159,5.766-7.292,3.595-11.441C378.025,178.477,372.904,176.872,368.755,179.042z"/>
<path d="M330.982,185.249c-4.624-0.712-8.954,2.465-9.666,7.089c-0.712,4.635,2.465,8.954,7.089,9.666v0.011
	c0.441,0.068,0.871,0.09,1.3,0.09c4.115,0,7.722-2.996,8.366-7.19C338.783,190.291,335.618,185.961,330.982,185.249z"/>
<path d="M312.565,179.302c-4.172-2.137-9.282-0.475-11.407,3.697c-2.137,4.172-0.475,9.271,3.697,11.407
	c1.232,0.622,2.544,0.927,3.844,0.927c3.086,0,6.06-1.696,7.564-4.624C318.388,186.538,316.737,181.428,312.565,179.302z"/>
<path d="M297.131,75.078c-2.815,2.053-4.125,5.76-3.184,9.123c1.019,3.635,4.39,6.218,8.172,6.218c4.08,0,7.627-3.023,8.346-7.025
	C311.783,76.061,303.139,70.694,297.131,75.078z"/>
<path d="M119.772,216.038c-5.397,5.172-1.592,14.604,5.865,14.604c4.395,0,8.119-3.5,8.453-7.861
	C134.673,215.173,125.245,210.792,119.772,216.038z"/>
<path d="M174.09,214.887c-3.245-1.922-7.462-1.474-10.203,1.129c-5.413,5.141-1.662,14.624,5.843,14.624
	c4.215,0,7.915-3.262,8.414-7.447C178.534,219.908,176.951,216.582,174.09,214.887z"/>
<path d="M449.958,336.001c-9.657-9.657-29.741-80.198-41.837-130.516c20.608-45.044,11.48-120.708,10.554-127.88
	c-0.175-20.657-8.288-40.053-22.914-54.678c-3.311-3.313-8.681-3.311-11.991,0c-3.311,3.311-3.311,8.68,0,11.991
	c9.707,9.707,15.742,22.099,17.449,35.498c-26.788,1.157-51.729-5.757-74.238-20.653c-11.068-7.325-19.07-15.056-23.785-20.183
	c10.327-7.907,23.224-12.622,37.208-12.622c8.281,0,16.313,1.62,23.869,4.816c4.315,1.825,9.289-0.193,11.112-4.506
	s-0.193-9.289-4.506-11.112C361.222,2.071,350.967,0,340.405,0c-43.167,0-78.287,35.119-78.287,78.287
	c0,30.532,17.58,57.02,43.139,69.921c-18.036,10.641-30.247,30.122-30.642,52.444c-11.932,50.506-33.015,125.375-42.989,135.349
	c-0.637,0.638-0.881,0.607-1.368,0.539c-7.363-0.986-22.443-19.351-32.062-36.052c-4.183-9.904-11.199-18.33-20.025-24.261
	c20.25-10.9,34.047-32.297,34.047-56.86c0-35.583-28.949-64.533-64.533-64.533s-64.532,28.949-64.532,64.533
	c0,24.563,13.797,45.96,34.047,56.86c-13.816,9.283-23.186,24.684-24.213,42.29c-7.746,9.594-33.43,45.938-33.43,106.01
	c0,4.683,3.796,8.479,8.479,8.479s8.479-3.796,8.479-8.479c0-31.901,8.087-56.484,16.012-72.939
	c-0.769,22.546-2.819,45.127-6.149,67.368l-1.196,7.981c-0.366,2.441,0.35,4.92,1.96,6.79c1.611,1.87,3.957,2.945,6.425,2.945
	h20.364c7.264,36.871,16.862,61.472,28.563,73.174c1.406,1.406,3.285,2.153,5.198,2.153c0.946,0,1.902-0.183,2.811-0.56
	c0.911-0.378,1.704-0.937,2.374-1.608l0.012,0.012c11.693-11.704,21.286-36.304,28.549-73.171h20.363
	c2.468,0,4.814-1.075,6.425-2.945c1.611-1.87,2.327-4.349,1.962-6.79l-1.196-7.982c-0.605-4.041-1.177-8.153-1.699-12.221
	c-0.597-4.644-4.843-7.925-9.491-7.329c-4.644,0.597-7.926,4.846-7.329,9.491c0.462,3.599,0.962,7.23,1.489,10.818H103.41
	c4.269-29.091,6.433-58.728,6.433-88.122v-9.851c0-7.316,2.093-14.149,5.703-19.944c8.907,7.528,20.175,11.719,32.145,11.719
	c11.965,0,23.23-4.191,32.135-11.719c3.61,5.795,5.703,12.628,5.703,19.944v9.851c0,17.206,0.745,34.625,2.214,51.771
	c0.4,4.666,4.494,8.124,9.172,7.725c4.666-0.4,8.124-4.506,7.725-9.172c-1.307-15.257-2.017-30.733-2.129-46.072
	c7.674,8.709,16.703,16.323,25.49,17.502c0.894,0.12,1.776,0.18,2.643,0.18c4.881,0,9.325-1.886,12.974-5.535
	c5.029-5.029,13.71-18.78,30.97-79.869v19.186l-9.472,100.237c-0.225,2.378,0.564,4.738,2.17,6.504
	c1.607,1.766,3.885,2.772,6.271,2.772h25.94c2.709,23.172,12.344,90.573,34.795,113.024c1.406,1.406,3.285,2.153,5.198,2.153
	c0.946,0,1.902-0.183,2.811-0.56c0.91-0.376,1.703-0.935,2.372-1.605l0.012,0.012c22.451-22.451,32.086-89.851,34.794-113.024
	h28.549c2.388,0,4.665-1.007,6.271-2.772c1.607-1.766,2.395-4.128,2.17-6.504l-3.394-35.911c-0.441-4.662-4.579-8.076-9.239-7.644
	c-4.662,0.441-8.085,4.578-7.644,9.239l2.518,26.634H282.876l7.907-83.676h100.019l2.76,29.206c0.441,4.662,4.588,8.082,9.239,7.644
	c4.662-0.441,8.085-4.577,7.644-9.239l-3.448-36.49v-19.186c17.259,61.089,25.941,74.841,30.97,79.869
	c1.655,1.656,3.826,2.484,5.995,2.484c2.17,0,4.34-0.828,5.995-2.484C453.27,344.681,453.27,339.312,449.958,336.001z
	 M128.93,436.675h11.414v40.912C136.135,466.811,132.274,453.004,128.93,436.675z M155.041,477.562v-40.888h11.406
	C163.106,452.996,159.245,466.789,155.041,477.562z M189.253,196.266c-7.912-1.404-17.87-4.478-24.756-11.215
	c-3.5-3.424-5.878-7.482-7.17-12.272C171.049,175.614,182.621,184.382,189.253,196.266z M138.044,172.779
	c-1.292,4.79-3.67,8.848-7.17,12.273c-6.887,6.737-16.844,9.812-24.756,11.216C112.75,184.382,124.323,175.614,138.044,172.779z
	 M100.113,219.368c0-1.781,0.106-3.535,0.298-5.266c10.342-0.875,29.286-4.232,42.25-16.858c1.872-1.824,3.54-3.772,5.025-5.827
	c1.486,2.055,3.153,4.002,5.025,5.826c12.964,12.627,31.909,15.984,42.25,16.858c0.191,1.73,0.298,3.486,0.298,5.266
	c0,26.233-21.342,47.573-47.574,47.573S100.113,245.601,100.113,219.368z M127.57,289.714c5.833-3.677,12.728-5.813,20.117-5.813
	c7.389,0,14.285,2.137,20.117,5.813c-5.695,4.407-12.7,6.846-20.112,6.846C140.274,296.559,133.265,294.12,127.57,289.714z
	 M314.281,396.823h17.858v80.795C322.66,453.251,316.818,418.004,314.281,396.823z M346.836,477.626v-80.804h17.861
	C362.163,418.007,356.322,453.26,346.836,477.626z M404.469,123.198c0.086,15.938-0.849,34.076-4.154,50.584
	c-5.455-10.77-13.949-19.741-24.355-25.785C387.364,142.158,397.149,133.609,404.469,123.198z M279.076,78.287
	c0-13.721,4.53-26.403,12.172-36.632c5.414,5.819,14.026,13.993,25.753,21.838c7.96,5.326,18.044,10.917,30.097,15.362
	c-0.682,1.743-0.815,3.697-0.251,5.543c1.077,3.527,4.405,6.018,8.105,6.018c3.955,0,7.436-2.846,8.278-6.691
	c11.326,2.686,23.965,4.174,37.823,3.68c-4.418,29.507-29.928,52.21-60.647,52.21C306.588,139.615,279.076,112.104,279.076,78.287z
	 M291.546,279.23v-77.47c0-24.915,20.27-45.187,45.185-45.187h8.121c24.915,0,45.186,20.271,45.186,45.187v77.47H291.546z"/>
</svg>